<?xml version="1.0" encoding="UTF-8"?>
<!DOCTYPE svg PUBLIC "-//W3C//DTD SVG 1.1//EN" "http://www.w3.org/Graphics/SVG/1.1/DTD/svg11.dtd">
<svg version="1.1" xmlns="http://www.w3.org/2000/svg" xmlns:xlink="http://www.w3.org/1999/xlink" x="0" y="0" width="342.556" height="259.057" viewBox="0, 0, 342.556, 259.057">
  <g id="Layer_1">
    <g>
      <path d="M168.933,22.215 L299.268,148.078 C310.207,158.975 314.347,170.609 314.613,185.819 C314.19,198.504 309.032,209.962 300.51,219.244 C281.201,239.24 249.339,239.796 229.344,220.487 L171.417,164.547 L115.478,222.474 C96.169,242.469 64.307,243.025 44.311,223.716 C24.316,204.407 23.76,172.545 43.069,152.55 L168.933,22.215 z" fill="#5C5C5C"/>
      <path d="M168.933,22.215 L299.268,148.078 C310.207,158.975 314.347,170.609 314.613,185.819 C314.19,198.504 309.032,209.962 300.51,219.244 C281.201,239.24 249.339,239.796 229.344,220.487 L171.417,164.547 L115.478,222.474 C96.169,242.469 64.307,243.025 44.311,223.716 C24.316,204.407 23.76,172.545 43.069,152.55 L168.933,22.215 z" fill-opacity="0" stroke="#A8D8EA" stroke-width="1"/>
    </g>
  </g>
</svg>
