<?xml version="1.0" encoding="UTF-8"?>
<!DOCTYPE svg PUBLIC "-//W3C//DTD SVG 1.1//EN" "http://www.w3.org/Graphics/SVG/1.1/DTD/svg11.dtd">
<svg version="1.1" xmlns="http://www.w3.org/2000/svg" xmlns:xlink="http://www.w3.org/1999/xlink" x="0" y="0" width="324" height="324" viewBox="0, 0, 324, 324">
  <g id="Layer_1">
    <path d="M24,0 L132,0 C133.657,0 156,0 156,24 L156,132 C156,156 133.657,156 132,156 L24,156 C0,156 0,133.657 0,132 L0,24 C0,0 22.343,0 24,0 z" fill="#F38181"/>
    <path d="M192,0 L300,0 C301.657,0 324,0 324,24 L324,132 C324,156 301.657,156 300,156 L192,156 C168,156 168,133.657 168,132 L168,24 C168,0 190.343,0 192,0 z" fill="#FCE38A"/>
    <path d="M24,168 L132,168 C133.657,168 156,168 156,192 L156,300 C156,324 133.657,324 132,324 L24,324 C0,324 0,301.657 0,300 L0,192 C0,168 22.343,168 24,168 z" fill="#EAFFD0"/>
    <path d="M192,168 L300,168 C301.657,168 324,168 324,192 L324,300 C324,324 301.657,324 300,324 L192,324 C168,324 168,301.657 168,300 L168,192 C168,168 190.343,168 192,168 z" fill="#95E1D3"/>
  </g>
</svg>
