<?xml version="1.0" encoding="UTF-8"?>
<!DOCTYPE svg PUBLIC "-//W3C//DTD SVG 1.1//EN" "http://www.w3.org/Graphics/SVG/1.1/DTD/svg11.dtd">
<svg version="1.1" xmlns="http://www.w3.org/2000/svg" xmlns:xlink="http://www.w3.org/1999/xlink" x="0" y="0" width="900" height="888" viewBox="0, 0, 900, 888">
  <g id="Layer_1">
    <path d="M22.222,0 L122.222,0 C123.756,0 144.444,0 144.444,22.222 L144.444,122.222 C144.444,144.444 123.756,144.444 122.222,144.444 L22.222,144.444 C0,144.444 0,123.756 0,122.222 L0,22.222 C0,0 20.688,0 22.222,0 z" fill="#F38181"/>
    <path d="M177.778,0 L277.778,0 C279.312,0 300,0 300,22.222 L300,122.222 C300,144.444 279.312,144.444 277.778,144.444 L177.778,144.444 C155.556,144.444 155.556,123.756 155.556,122.222 L155.556,22.222 C155.556,0 176.244,0 177.778,0 z" fill="#FCE38A"/>
    <path d="M22.222,155.556 L122.222,155.556 C123.756,155.556 144.444,155.556 144.444,177.778 L144.444,277.778 C144.444,300 123.756,300 122.222,300 L22.222,300 C0,300 0,279.312 0,277.778 L0,177.778 C0,155.556 20.688,155.556 22.222,155.556 z" fill="#EAFFD0"/>
    <path d="M177.778,155.556 L277.778,155.556 C279.312,155.556 300,155.556 300,177.778 L300,277.778 C300,300 279.312,300 277.778,300 L177.778,300 C155.556,300 155.556,279.312 155.556,277.778 L155.556,177.778 C155.556,155.556 176.244,155.556 177.778,155.556 z" fill="#95E1D3"/>
    <path d="M777.778,0 L877.778,0 C879.312,0 900,0 900,22.222 L900,122.222 C900,144.444 879.312,144.444 877.778,144.444 L777.778,144.444 C755.556,144.444 755.556,123.756 755.556,122.222 L755.556,22.222 C755.556,0 776.244,0 777.778,0 z" fill="#F38181"/>
    <path d="M622.222,0 L722.222,0 C723.756,0 744.444,0 744.444,22.222 L744.444,122.222 C744.444,144.444 723.756,144.444 722.222,144.444 L622.222,144.444 C600,144.444 600,123.756 600,122.222 L600,22.222 C600,0 620.688,0 622.222,0 z" fill="#FCE38A"/>
    <path d="M777.778,155.556 L877.778,155.556 C879.312,155.556 900,155.556 900,177.778 L900,277.778 C900,300 879.312,300 877.778,300 L777.778,300 C755.556,300 755.556,279.312 755.556,277.778 L755.556,177.778 C755.556,155.556 776.244,155.556 777.778,155.556 z" fill="#EAFFD0"/>
    <path d="M622.222,155.556 L722.222,155.556 C723.756,155.556 744.444,155.556 744.444,177.778 L744.444,277.778 C744.444,300 723.756,300 722.222,300 L622.222,300 C600,300 600,279.312 600,277.778 L600,177.778 C600,155.556 620.688,155.556 622.222,155.556 z" fill="#95E1D3"/>
    <path d="M777.778,743.556 L877.778,743.556 C879.312,743.556 900,743.556 900,765.778 L900,865.778 C900,888 879.312,888 877.778,888 L777.778,888 C755.556,888 755.556,867.312 755.556,865.778 L755.556,765.778 C755.556,743.556 776.244,743.556 777.778,743.556 z" fill="#F38181"/>
    <path d="M622.222,743.556 L722.222,743.556 C723.756,743.556 744.444,743.556 744.444,765.778 L744.444,865.778 C744.444,888 723.756,888 722.222,888 L622.222,888 C600,888 600,867.312 600,865.778 L600,765.778 C600,743.556 620.688,743.556 622.222,743.556 z" fill="#FCE38A"/>
    <path d="M777.778,588 L877.778,588 C879.312,588 900,588 900,610.222 L900,710.222 C900,732.444 879.312,732.444 877.778,732.444 L777.778,732.444 C755.556,732.444 755.556,711.756 755.556,710.222 L755.556,610.222 C755.556,588 776.244,588 777.778,588 z" fill="#EAFFD0"/>
    <path d="M622.222,588 L722.222,588 C723.756,588 744.444,588 744.444,610.222 L744.444,710.222 C744.444,732.444 723.756,732.444 722.222,732.444 L622.222,732.444 C600,732.444 600,711.756 600,710.222 L600,610.222 C600,588 620.688,588 622.222,588 z" fill="#95E1D3"/>
    <path d="M22.222,743.556 L122.222,743.556 C123.756,743.556 144.444,743.556 144.444,765.778 L144.444,865.778 C144.444,888 123.756,888 122.222,888 L22.222,888 C0,888 0,867.312 0,865.778 L0,765.778 C0,743.556 20.688,743.556 22.222,743.556 z" fill="#F38181"/>
    <path d="M177.778,743.556 L277.778,743.556 C279.312,743.556 300,743.556 300,765.778 L300,865.778 C300,888 279.312,888 277.778,888 L177.778,888 C155.556,888 155.556,867.312 155.556,865.778 L155.556,765.778 C155.556,743.556 176.244,743.556 177.778,743.556 z" fill="#FCE38A"/>
    <path d="M22.222,588 L122.222,588 C123.756,588 144.444,588 144.444,610.222 L144.444,710.222 C144.444,732.444 123.756,732.444 122.222,732.444 L22.222,732.444 C0,732.444 0,711.756 0,710.222 L0,610.222 C0,588 20.688,588 22.222,588 z" fill="#EAFFD0"/>
    <path d="M177.778,588 L277.778,588 C279.312,588 300,588 300,610.222 L300,710.222 C300,732.444 279.312,732.444 277.778,732.444 L177.778,732.444 C155.556,732.444 155.556,711.756 155.556,710.222 L155.556,610.222 C155.556,588 176.244,588 177.778,588 z" fill="#95E1D3"/>
    <g>
      <path d="M144.944,336.5 L144.944,540.5" fill="#F38181"/>
      <path d="M144.944,336.5 L144.944,540.5" fill-opacity="0" stroke="#F38181" stroke-width="5" stroke-linecap="round" stroke-linejoin="round"/>
    </g>
    <g>
      <path d="M132.5,516.5 L144.944,540.5 L156.056,516.5 L132.5,516.5 z" fill="#F38181"/>
      <path d="M132.5,516.5 L144.944,540.5 L156.056,516.5 L132.5,516.5 z" fill-opacity="0" stroke="#F38181" stroke-width="5" stroke-linecap="round" stroke-linejoin="round"/>
    </g>
    <g>
      <path d="M144.944,336.5 L132.5,360.5 L156.056,360.5 L144.944,336.5" fill="#F38181"/>
      <path d="M144.944,336.5 L132.5,360.5 L156.056,360.5 L144.944,336.5" fill-opacity="0" stroke="#F38181" stroke-width="5" stroke-linejoin="round"/>
    </g>
    <g>
      <path d="M756.944,336.5 L756.944,540.5" fill="#F38181"/>
      <path d="M756.944,336.5 L756.944,540.5" fill-opacity="0" stroke="#F38181" stroke-width="5" stroke-linecap="round" stroke-linejoin="round"/>
    </g>
    <g>
      <path d="M744.5,516.5 L756.944,540.5 L768.056,516.5 L744.5,516.5 z" fill="#F38181"/>
      <path d="M744.5,516.5 L756.944,540.5 L768.056,516.5 L744.5,516.5 z" fill-opacity="0" stroke="#F38181" stroke-width="5" stroke-linecap="round" stroke-linejoin="round"/>
    </g>
    <g>
      <path d="M756.944,336.5 L744.5,360.5 L768.056,360.5 L756.944,336.5" fill="#F38181"/>
      <path d="M756.944,336.5 L744.5,360.5 L768.056,360.5 L756.944,336.5" fill-opacity="0" stroke="#F38181" stroke-width="5" stroke-linejoin="round"/>
    </g>
    <g>
      <path d="M552.5,144.944 L348.5,144.944" fill="#95E1D3"/>
      <path d="M552.5,144.944 L348.5,144.944" fill-opacity="0" stroke="#95E1D3" stroke-width="5" stroke-linecap="round" stroke-linejoin="round"/>
    </g>
    <g>
      <path d="M372.5,132.5 L348.5,144.944 L372.5,156.056 L372.5,132.5 z" fill="#95E1D3"/>
      <path d="M372.5,132.5 L348.5,144.944 L372.5,156.056 L372.5,132.5 z" fill-opacity="0" stroke="#95E1D3" stroke-width="5" stroke-linecap="round" stroke-linejoin="round"/>
    </g>
    <g>
      <path d="M552.5,144.944 L528.5,132.5 L528.5,156.056 L552.5,144.944" fill="#95E1D3"/>
      <path d="M552.5,144.944 L528.5,132.5 L528.5,156.056 L552.5,144.944" fill-opacity="0" stroke="#95E1D3" stroke-width="5" stroke-linejoin="round"/>
    </g>
    <g>
      <path d="M552.5,744.944 L348.5,744.944" fill="#95E1D3"/>
      <path d="M552.5,744.944 L348.5,744.944" fill-opacity="0" stroke="#95E1D3" stroke-width="5" stroke-linecap="round" stroke-linejoin="round"/>
    </g>
    <g>
      <path d="M372.5,732.5 L348.5,744.944 L372.5,756.056 L372.5,732.5 z" fill="#95E1D3"/>
      <path d="M372.5,732.5 L348.5,744.944 L372.5,756.056 L372.5,732.5 z" fill-opacity="0" stroke="#95E1D3" stroke-width="5" stroke-linecap="round" stroke-linejoin="round"/>
    </g>
    <g>
      <path d="M552.5,744.944 L528.5,732.5 L528.5,756.056 L552.5,744.944" fill="#95E1D3"/>
      <path d="M552.5,744.944 L528.5,732.5 L528.5,756.056 L552.5,744.944" fill-opacity="0" stroke="#95E1D3" stroke-width="5" stroke-linejoin="round"/>
    </g>
  </g>
</svg>
