<?xml version="1.0" encoding="UTF-8"?>
<!DOCTYPE svg PUBLIC "-//W3C//DTD SVG 1.1//EN" "http://www.w3.org/Graphics/SVG/1.1/DTD/svg11.dtd">
<svg version="1.1" xmlns="http://www.w3.org/2000/svg" xmlns:xlink="http://www.w3.org/1999/xlink" x="0" y="0" width="324" height="324" viewBox="0, 0, 324, 324">
  <g id="Layer_1">
    <path d="M52.452,279 C24.465,279 1.777,256.312 1.777,228.325 C1.777,200.338 24.465,177.65 52.452,177.65 C80.439,177.65 103.127,200.338 103.127,228.325 C103.127,256.312 80.439,279 52.452,279 z" fill="#F38181"/>
    <path d="M271.548,279 C243.561,279 220.873,256.312 220.873,228.325 C220.873,200.338 243.561,177.65 271.548,177.65 C299.535,177.65 322.223,200.338 322.223,228.325 C322.223,256.312 299.535,279 271.548,279 z" fill="#F38181"/>
    <path d="M162,252.172 C104.791,252.172 58.414,205.795 58.414,148.586 C58.414,91.377 104.791,45 162,45 C219.209,45 265.586,91.377 265.586,148.586 C265.586,205.795 219.209,252.172 162,252.172 z" fill="#95E1D3"/>
  </g>
</svg>
