<?xml version="1.0" encoding="UTF-8"?>
<!DOCTYPE svg PUBLIC "-//W3C//DTD SVG 1.1//EN" "http://www.w3.org/Graphics/SVG/1.1/DTD/svg11.dtd">
<svg version="1.1" xmlns="http://www.w3.org/2000/svg" xmlns:xlink="http://www.w3.org/1999/xlink" x="0" y="0" width="683.138" height="783.95" viewBox="0, 0, 683.138, 783.95">
  <g id="Layer_1">
    <path d="M19.855,172.855 L95.668,131.706 C96.832,131.075 112.516,122.562 129.002,133.775 L203.192,184.234 C219.679,195.447 203.994,203.96 202.831,204.591 L127.018,245.74 C110.171,254.884 94.823,244.445 93.684,243.671 L19.495,193.212 C3.008,181.999 18.692,173.486 19.855,172.855 z" fill="#FCE38A"/>
    <path d="M137.787,108.845 L213.6,67.697 C214.763,67.065 230.447,58.552 246.934,69.765 L321.123,120.225 C337.61,131.438 321.926,139.951 320.763,140.582 L244.95,181.731 C228.102,190.875 212.754,180.436 211.616,179.662 L137.426,129.203 C120.939,117.99 136.624,109.477 137.787,108.845 z" fill="#FCE38A"/>
    <path d="M135.262,251.347 L211.075,210.198 C212.238,209.566 227.922,201.054 244.409,212.267 L318.598,262.726 C335.085,273.939 319.401,282.452 318.238,283.083 L242.424,324.232 C225.577,333.376 210.229,322.937 209.091,322.163 L134.901,271.704 C118.414,260.491 134.099,251.978 135.262,251.347 z" fill="#FCE38A"/>
    <path d="M253.193,187.337 L329.006,146.188 C330.169,145.557 345.853,137.044 362.34,148.257 L436.53,198.716 C453.016,209.93 437.332,218.443 436.169,219.074 L360.356,260.223 C343.509,269.367 328.16,258.928 327.022,258.154 L252.832,207.695 C236.346,196.481 252.03,187.969 253.193,187.337 z" fill="#FCE38A"/>
    <path d="M255.718,44.836 L331.531,3.687 C332.694,3.056 348.379,-5.457 364.865,5.756 L439.055,56.215 C455.541,67.428 439.857,75.941 438.694,76.572 L362.881,117.721 C346.034,126.866 330.685,116.427 329.547,115.652 L255.357,65.193 C238.871,53.98 254.555,45.467 255.718,44.836 z" fill="#FCE38A"/>
    <path d="M371.124,123.328 L446.937,82.179 C448.1,81.548 463.785,73.035 480.271,84.248 L554.461,134.707 C570.948,145.92 555.263,154.433 554.1,155.064 L478.287,196.213 C461.44,205.357 446.092,194.918 444.953,194.144 L370.764,143.685 C354.277,132.472 369.961,123.959 371.124,123.328 z" fill="#FCE38A"/>
    <path d="M250.668,329.839 L326.481,288.69 C327.644,288.058 343.328,279.545 359.815,290.759 L434.004,341.218 C450.491,352.431 434.807,360.944 433.644,361.575 L357.831,402.724 C340.983,411.868 325.635,401.429 324.497,400.655 L250.307,350.196 C233.82,338.983 249.505,330.47 250.668,329.839 z" fill="#FCE38A"/>
    <path d="M368.599,265.829 L444.412,224.68 C445.575,224.049 461.26,215.536 477.746,226.749 L551.936,277.208 C568.422,288.422 552.738,296.934 551.575,297.566 L475.762,338.715 C458.915,347.859 443.566,337.42 442.428,336.646 L368.238,286.187 C351.752,274.973 367.436,266.46 368.599,265.829 z" fill="#FCE38A"/>
    <path d="M486.531,201.82 L562.344,160.671 C563.507,160.04 579.191,151.527 595.678,162.74 L669.867,213.199 C686.354,224.412 670.67,232.925 669.507,233.556 L593.693,274.705 C576.846,283.849 561.498,273.41 560.36,272.636 L486.17,222.177 C469.683,210.964 485.368,202.451 486.531,201.82 z" fill="#FCE38A"/>
    <path d="M364.348,417.149 L437.915,374.753 C439.044,374.103 454.263,365.332 454.263,382.955 L454.263,462.257 C454.263,479.879 439.044,488.65 437.915,489.301 L364.348,531.696 C348,541.117 348,524.711 348,523.495 L348,444.192 C348,426.57 363.22,417.799 364.348,417.149 z" fill="#F38181"/>
    <path d="M478.785,353.832 L552.352,311.437 C553.481,310.786 568.7,302.016 568.7,319.638 L568.7,398.94 C568.7,416.563 553.481,425.334 552.352,425.984 L478.785,468.379 C462.437,477.801 462.437,461.395 462.437,460.178 L462.437,380.876 C462.437,363.253 477.657,354.482 478.785,353.832 z" fill="#F38181"/>
    <path d="M364.348,540.507 L437.915,498.112 C439.044,497.462 454.263,488.691 454.263,506.314 L454.263,585.616 C454.263,603.238 439.044,612.009 437.915,612.659 L364.348,655.055 C348,664.476 348,648.07 348,646.853 L348,567.551 C348,549.929 363.22,541.158 364.348,540.507 z" fill="#F38181"/>
    <path d="M478.785,477.191 L552.352,434.795 C553.481,434.145 568.7,425.374 568.7,442.997 L568.7,522.299 C568.7,539.922 553.481,548.692 552.352,549.343 L478.785,591.738 C462.437,601.159 462.437,584.753 462.437,583.537 L462.437,504.235 C462.437,486.612 477.657,477.841 478.785,477.191 z" fill="#F38181"/>
    <path d="M593.223,287.884 L666.789,245.489 C667.918,244.838 683.138,236.067 683.138,253.69 L683.138,332.992 C683.138,350.615 667.918,359.385 666.789,360.036 L593.223,402.431 C576.875,411.852 576.875,395.446 576.875,394.23 L576.875,314.928 C576.875,297.305 592.094,288.534 593.223,287.884 z" fill="#F38181"/>
    <path d="M593.223,411.242 L666.789,368.847 C667.918,368.197 683.138,359.426 683.138,377.049 L683.138,456.351 C683.138,473.973 667.918,482.744 666.789,483.395 L593.223,525.79 C576.875,535.211 576.875,518.805 576.875,517.588 L576.875,438.286 C576.875,420.664 592.094,411.893 593.223,411.242 z" fill="#F38181"/>
    <path d="M364.348,663.866 L437.915,621.471 C439.044,620.82 454.263,612.05 454.263,629.672 L454.263,708.974 C454.263,726.597 439.044,735.368 437.915,736.018 L364.348,778.413 C348,787.835 348,771.429 348,770.212 L348,690.91 C348,673.287 363.22,664.516 364.348,663.866 z" fill="#F38181"/>
    <path d="M478.785,600.549 L552.352,558.154 C553.481,557.504 568.7,548.733 568.7,566.356 L568.7,645.658 C568.7,663.28 553.481,672.051 552.352,672.702 L478.785,715.097 C462.437,724.518 462.437,708.112 462.437,706.895 L462.437,627.593 C462.437,609.971 477.657,601.2 478.785,600.549 z" fill="#F38181"/>
    <path d="M593.223,534.601 L666.789,492.206 C667.918,491.556 683.138,482.785 683.138,500.407 L683.138,579.709 C683.138,597.332 667.918,606.103 666.789,606.753 L593.223,649.149 C576.875,658.57 576.875,642.164 576.875,640.947 L576.875,561.645 C576.875,544.022 592.094,535.252 593.223,534.601 z" fill="#F38181"/>
    <path d="M16.39,207.364 L90.146,256.069 C91.278,256.817 106.537,266.893 106.537,285.678 L106.537,370.211 C106.537,388.996 91.278,378.92 90.146,378.172 L16.39,329.467 C0,318.644 0,301.156 0,299.859 L0,215.326 C0,196.541 15.259,206.617 16.39,207.364 z" fill="#95E1D3"/>
    <path d="M131.122,283.128 L204.878,331.833 C206.01,332.58 221.268,342.656 221.268,361.441 L221.268,445.974 C221.268,464.759 206.01,454.683 204.878,453.936 L131.122,405.231 C114.732,394.408 114.732,376.919 114.732,375.622 L114.732,291.09 C114.732,272.304 129.99,282.381 131.122,283.128 z" fill="#95E1D3"/>
    <path d="M16.39,338.86 L90.146,387.565 C91.278,388.312 106.537,398.388 106.537,417.173 L106.537,501.706 C106.537,520.491 91.278,510.415 90.146,509.668 L16.39,460.963 C0,450.14 0,432.652 0,431.355 L0,346.822 C0,328.037 15.259,338.113 16.39,338.86 z" fill="#95E1D3"/>
    <path d="M131.122,414.623 L204.878,463.328 C206.01,464.076 221.268,474.152 221.268,492.937 L221.268,577.47 C221.268,596.255 206.01,586.179 204.878,585.431 L131.122,536.726 C114.732,525.903 114.732,508.415 114.732,507.118 L114.732,422.585 C114.732,403.8 129.99,413.876 131.122,414.623 z" fill="#95E1D3"/>
    <path d="M245.854,358.891 L319.61,407.596 C320.741,408.343 336,418.419 336,437.204 L336,521.737 C336,540.522 320.741,530.446 319.61,529.699 L245.854,480.994 C229.463,470.171 229.463,452.683 229.463,451.386 L229.463,366.853 C229.463,348.068 244.722,358.144 245.854,358.891 z" fill="#95E1D3"/>
    <path d="M245.854,490.387 L319.61,539.092 C320.741,539.839 336,549.915 336,568.7 L336,653.233 C336,672.018 320.741,661.942 319.61,661.195 L245.854,612.49 C229.463,601.666 229.463,584.178 229.463,582.881 L229.463,498.348 C229.463,479.563 244.722,489.639 245.854,490.387 z" fill="#95E1D3"/>
    <path d="M16.39,470.356 L90.146,519.061 C91.278,519.808 106.537,529.884 106.537,548.669 L106.537,633.202 C106.537,651.987 91.278,641.911 90.146,641.164 L16.39,592.459 C0,581.635 0,564.147 0,562.85 L0,478.317 C0,459.532 15.259,469.608 16.39,470.356 z" fill="#95E1D3"/>
    <path d="M131.122,546.119 L204.878,594.824 C206.01,595.571 221.268,605.647 221.268,624.432 L221.268,708.965 C221.268,727.75 206.01,717.674 204.878,716.927 L131.122,668.222 C114.732,657.399 114.732,639.91 114.732,638.614 L114.732,554.081 C114.732,535.296 129.99,545.372 131.122,546.119 z" fill="#95E1D3"/>
    <path d="M245.854,621.653 L319.61,667.037 C320.741,667.733 336,677.122 336,694.627 L336,773.396 C336,790.9 320.741,781.511 319.61,780.815 L245.854,735.431 C229.463,725.345 229.463,709.049 229.463,707.841 L229.463,629.072 C229.463,611.567 244.722,620.957 245.854,621.653 z" fill="#95E1D3"/>
  </g>
</svg>
